<?xml version="1.0" encoding="utf-8"?>
<!-- Generator: Adobe Illustrator 26.3.1, SVG Export Plug-In . SVG Version: 6.00 Build 0)  -->
<svg version="1.1" id="Layer_1" xmlns="http://www.w3.org/2000/svg" xmlns:xlink="http://www.w3.org/1999/xlink" x="0px" y="0px"
	 viewBox="0 0 100 16" style="enable-background:new 0 0 100 16;" xml:space="preserve">
<style type="text/css">
	.st0{fill:url(#SVGID_1_);}
	.st1{fill:url(#SVGID_00000035502674536882070290000011527279559900102327_);}
	.st2{fill:url(#SVGID_00000116958225269517384550000012745866137071705255_);}
	.st3{fill:url(#SVGID_00000150806940346744464620000001453948847150747027_);}
	.st4{display:none;fill-rule:evenodd;clip-rule:evenodd;fill:#FFFFFF;}
	.st5{fill:#FFFFFF;}
</style>
<linearGradient id="SVGID_1_" gradientUnits="userSpaceOnUse" x1="23.9419" y1="12.86" x2="3.0654" y2="12.86" gradientTransform="matrix(1 0 0 -1 0 18)">
	<stop  offset="0" style="stop-color:#996939"/>
	<stop  offset="1" style="stop-color:#D0A875"/>
</linearGradient>
<path class="st0" d="M8.3,0l8.5,5.1v5.1L8.3,5.1V0z"/>
<linearGradient id="SVGID_00000031174218172684396880000009364972669317528221_" gradientUnits="userSpaceOnUse" x1="11.9583" y1="2.065" x2="14.0143" y2="21.5298" gradientTransform="matrix(1 0 0 -1 0 18)">
	<stop  offset="0" style="stop-color:#272728"/>
	<stop  offset="1" style="stop-color:#4B4B4B"/>
</linearGradient>
<path style="fill:url(#SVGID_00000031174218172684396880000009364972669317528221_);" d="M8.3,16l8.5-5.1V5.8l-8.5,5.1V16z"/>
<linearGradient id="SVGID_00000175310996407356298240000015633557106566516670_" gradientUnits="userSpaceOnUse" x1="8.1904" y1="16.0425" x2="-0.1199" y2="9.5315" gradientTransform="matrix(1 0 0 -1 0 18)">
	<stop  offset="0" style="stop-color:#996939"/>
	<stop  offset="1" style="stop-color:#D0A875"/>
</linearGradient>
<path style="fill:url(#SVGID_00000175310996407356298240000015633557106566516670_);" d="M8.3,0L0,5.1v5.1l8.3-5.1V0z"/>
<linearGradient id="SVGID_00000033338785955342870200000017700351178914804405_" gradientUnits="userSpaceOnUse" x1="4.1284" y1="2.0089" x2="4.1284" y2="12.1851" gradientTransform="matrix(1 0 0 -1 0 18)">
	<stop  offset="0" style="stop-color:#363636"/>
	<stop  offset="1" style="stop-color:#333232"/>
</linearGradient>
<path style="fill:url(#SVGID_00000033338785955342870200000017700351178914804405_);" d="M8.3,16L0,10.9V5.8l8.3,5.1V16z"/>
<path class="st4" d="M26.9,13h1.4V8.3h0V7.1h0V2.9h-1.4V13z M29.8,8.3L29.8,8.3l0-1.2h0l2.6-4.3h1.6L31,7.7v0l3.1,5.3h-1.6L29.8,8.3
	z M43.6,2.9l-2,7.4c-0.1,0.6-0.2,1.1-0.2,1.1h0c0,0-0.1-0.5-0.2-1.1l-1.8-7.4h-1.5L40.5,13h1.7l1.8-6.6C44.1,5.8,44.2,5,44.2,5h0
	c0,0,0.1,0.8,0.3,1.4l1.8,6.6H48l2.7-10.1h-1.5l-1.9,7.4c-0.1,0.5-0.2,1.1-0.2,1.1h0c0,0-0.1-0.5-0.2-1.1l-2-7.4H43.6z M61.6,13
	h-6.1V2.9h5.9v1.2h-4.5v3.2h3.6v1.2h-3.6v3.3h4.7V13z M66.7,13h1.4V6.4c0-0.6-0.1-1.5-0.1-1.5h0c0,0,0.5,0.9,0.8,1.5l4.5,6.6h1.4
	V2.9h-1.4v6.6c0,0.6,0.1,1.5,0.1,1.5h0c0,0-0.5-0.9-0.8-1.5l-4.5-6.6h-1.4V13z M84.2,13h-1.4V4.1h-3.5V2.9h8.4v1.2h-3.5V13z
	 M97.5,13H99L95.4,2.9h-1.5L90.2,13h1.5l1-2.9h0l0.4-1.2l1.1-3.2c0.2-0.5,0.4-1.4,0.4-1.4h0c0,0,0.2,0.9,0.4,1.4l1.1,3.2l0,0
	l0.4,1.2L97.5,13z"/>
<g>
	<path class="st5" d="M22.9,2.3c0.7-0.1,1.9-0.2,3.1-0.2c1.7,0,2.8,0.3,3.6,0.9c0.7,0.5,1.1,1.2,1.1,2.1c0,1.1-0.8,2.2-2.2,2.6v0
		c1.2,0.3,2.7,1.2,2.7,3c0,1-0.4,1.8-1.1,2.4c-0.9,0.8-2.4,1.1-4.5,1.1c-1.2,0-2-0.1-2.6-0.1V2.3z M24.5,7.2h1.5
		c1.8,0,2.8-0.8,2.8-2c0-1.4-1.2-1.9-2.8-1.9c-0.8,0-1.2,0.1-1.5,0.1V7.2z M24.5,12.9c0.3,0.1,0.8,0.1,1.4,0.1
		c1.7,0,3.3-0.6,3.3-2.3c0-1.6-1.5-2.3-3.3-2.3h-1.4V12.9z"/>
	<path class="st5" d="M35.4,10.3L34,14.1h-1.7l4.4-11.9h2l4.4,11.9h-1.8L40,10.3H35.4z M39.6,9.1l-1.3-3.4c-0.3-0.8-0.5-1.5-0.7-2.2
		h0C37.5,4.2,37.3,5,37,5.7l-1.3,3.4H39.6z"/>
	<path class="st5" d="M44.8,12.2c0.7,0.4,1.8,0.8,3,0.8c1.7,0,2.7-0.8,2.7-2c0-1.1-0.7-1.7-2.4-2.4c-2.1-0.7-3.4-1.7-3.4-3.4
		c0-1.9,1.7-3.2,4.2-3.2c1.3,0,2.3,0.3,2.9,0.6l-0.5,1.3c-0.4-0.2-1.3-0.6-2.5-0.6c-1.8,0-2.4,1-2.4,1.8c0,1.1,0.8,1.7,2.6,2.3
		c2.2,0.8,3.3,1.7,3.3,3.5c0,1.8-1.5,3.4-4.5,3.4c-1.3,0-2.6-0.3-3.3-0.8L44.8,12.2z"/>
	<path class="st5" d="M61.3,8.5h-5v4.3h5.6v1.3h-7.3V2.2h7v1.3h-5.3v3.8h5V8.5z"/>
	<path class="st5" d="M64,2.3c1-0.1,2.2-0.2,3.6-0.2c2.4,0,4.1,0.5,5.3,1.5c1.2,1,1.8,2.3,1.8,4.3c0,1.9-0.7,3.5-1.9,4.6
		c-1.2,1.1-3.2,1.7-5.7,1.7c-1.2,0-2.2-0.1-3-0.1V2.3z M65.7,12.8c0.4,0.1,1,0.1,1.7,0.1c3.6,0,5.5-1.8,5.5-5c0-2.8-1.7-4.6-5.3-4.6
		c-0.9,0-1.5,0.1-2,0.2V12.8z"/>
	<path class="st5" d="M76.8,2.2h7v1.3h-5.3v4h4.9v1.3h-4.9v5.4h-1.7V2.2z"/>
	<path class="st5" d="M87.9,2.2v11.9h-1.7V2.2H87.9z"/>
</g>
</svg>
