<?xml version="1.0" encoding="utf-8"?>
<!-- Generator: Adobe Illustrator 26.3.1, SVG Export Plug-In . SVG Version: 6.00 Build 0)  -->
<svg version="1.1" id="Layer_1" xmlns="http://www.w3.org/2000/svg" xmlns:xlink="http://www.w3.org/1999/xlink" x="0px" y="0px"
	 viewBox="0 0 157 25" style="enable-background:new 0 0 157 25;" xml:space="preserve">
<style type="text/css">
	.st0{fill:url(#SVGID_1_);}
	.st1{fill:url(#SVGID_00000176762227779090175760000012787419715252120202_);}
	.st2{fill:url(#SVGID_00000133488408325998402100000017794600834261118908_);}
	.st3{fill:url(#SVGID_00000165206410628160607610000009409319461511153808_);}
	.st4{display:none;fill-rule:evenodd;clip-rule:evenodd;fill:#FFFFFF;}
	.st5{fill:#FFFFFF;}
</style>
<linearGradient id="SVGID_1_" gradientUnits="userSpaceOnUse" x1="37.9634" y1="17.7857" x2="4.8607" y2="17.7857" gradientTransform="matrix(1 0 0 -1 0 26)">
	<stop  offset="0" style="stop-color:#996939"/>
	<stop  offset="1" style="stop-color:#D0A875"/>
</linearGradient>
<path class="st0" d="M13.1,0.5l13.4,7.7v7.7L13.1,8.2V0.5z"/>
<linearGradient id="SVGID_00000112602893999209526890000008702539439787480980_" gradientUnits="userSpaceOnUse" x1="19.0486" y1="1.5756" x2="21.9726" y2="30.8224" gradientTransform="matrix(1 0 0 -1 0 26)">
	<stop  offset="0" style="stop-color:#272728"/>
	<stop  offset="1" style="stop-color:#4B4B4B"/>
</linearGradient>
<path style="fill:url(#SVGID_00000112602893999209526890000008702539439787480980_);" d="M13.1,24.5l13.4-7.6V9.2l-13.4,7.6V24.5z"
	/>
<linearGradient id="SVGID_00000044883033720320786620000008201153226713802631_" gradientUnits="userSpaceOnUse" x1="12.7144" y1="22.8915" x2="9.503157e-02" y2="12.4457" gradientTransform="matrix(1 0 0 -1 0 26)">
	<stop  offset="0" style="stop-color:#996939"/>
	<stop  offset="1" style="stop-color:#D0A875"/>
</linearGradient>
<path style="fill:url(#SVGID_00000044883033720320786620000008201153226713802631_);" d="M13.1,0.5L0,8.2v7.7l13.1-7.7V0.5z"/>
<linearGradient id="SVGID_00000068635301866760553360000004071985483272006045_" gradientUnits="userSpaceOnUse" x1="6.5462" y1="1.5" x2="6.5462" y2="16.7727" gradientTransform="matrix(1 0 0 -1 0 26)">
	<stop  offset="0" style="stop-color:#363636"/>
	<stop  offset="1" style="stop-color:#333232"/>
</linearGradient>
<path style="fill:url(#SVGID_00000068635301866760553360000004071985483272006045_);" d="M13.1,24.5L0,16.9V9.2l13.1,7.6V24.5z"/>
<path class="st4" d="M42.7,20h2.3v-7h0v-1.8h0V4.8h-2.3V20z M47.3,13L47.3,13l0-1.8h0l4-6.4h2.5L49.2,12v0l5,7.9h-2.5L47.3,13z
	 M69.2,4.8L66,16c-0.2,0.8-0.3,1.6-0.3,1.6h0c0,0-0.1-0.8-0.3-1.6L62.5,4.8h-2.3L64.3,20h2.6l2.8-9.9c0.3-1,0.5-2.2,0.5-2.2h0
	c0,0,0.2,1.2,0.5,2.2l2.8,9.9h2.6l4.2-15.2h-2.3L75,16c-0.2,0.8-0.3,1.6-0.3,1.6h0c0,0-0.1-0.8-0.3-1.6L71.2,4.8H69.2z M97.7,20H88
	V4.8h9.3v1.9h-7.1v4.8H96v1.9h-5.8v4.9h7.5V20z M105.8,20h2.3v-9.9c0-0.9-0.2-2.2-0.2-2.2h0c0,0,0.8,1.4,1.3,2.2l7.2,9.9h2.2V4.8
	h-2.3v9.9c0,0.8,0.2,2.2,0.2,2.2h0c0,0-0.8-1.4-1.3-2.2L108,4.8h-2.2V20z M133.5,20h-2.3V6.7h-5.5V4.8H139v1.9h-5.5V20z M154.6,20
	h2.3l-5.8-15.2h-2.4L143.1,20h2.3l1.6-4.3l0,0l0.6-1.8l0,0l1.8-4.8c0.3-0.8,0.6-2.2,0.6-2.2h0c0,0,0.3,1.4,0.6,2.2l1.8,4.8h0
	l0.6,1.8L154.6,20z"/>
<g id="Layer_2">
	<g>
		<path class="st5" d="M31.8,2.8c1.3-0.2,3.5-0.4,5.6-0.4c3.1,0,5.1,0.4,6.6,1.4c1.2,0.7,2,1.9,2,3.4c0,1.9-1.5,3.5-4,4.2v0.1
			c2.3,0.5,4.9,2,4.9,4.8c0,1.7-0.8,2.9-2,3.8c-1.7,1.2-4.4,1.8-8.3,1.8c-2.1,0-3.8-0.1-4.8-0.2V2.8z M34.9,10.6h2.8
			c3.3,0,5.2-1.4,5.2-3.2c0-2.3-2.1-3.1-5.3-3.1c-1.4,0-2.2,0.1-2.7,0.2V10.6z M34.9,19.8c0.6,0.1,1.5,0.1,2.6,0.1
			c3.2,0,6.1-0.9,6.1-3.7c0-2.6-2.8-3.7-6.2-3.7h-2.6V19.8z"/>
		<path class="st5" d="M54.9,15.7l-2.5,6h-3.2l8.1-19.2H61l8.2,19.2h-3.3l-2.6-6H54.9z M62.7,13.7l-2.3-5.5
			c-0.5-1.3-0.9-2.4-1.2-3.5h-0.1c-0.4,1.1-0.7,2.3-1.2,3.5l-2.3,5.6H62.7z"/>
		<path class="st5" d="M72.3,18.7c1.4,0.7,3.4,1.3,5.5,1.3c3.2,0,5-1.3,5-3.3c0-1.8-1.3-2.8-4.5-3.8c-3.9-1.1-6.3-2.7-6.3-5.4
			c0-3,3.1-5.2,7.7-5.2c2.4,0,4.2,0.5,5.3,0.9l-0.9,2c-0.8-0.3-2.4-0.9-4.5-0.9c-3.3,0-4.5,1.6-4.5,2.9c0,1.8,1.5,2.7,4.8,3.7
			c4,1.3,6.1,2.8,6.1,5.6c0,3-2.7,5.5-8.4,5.5c-2.3,0-4.8-0.5-6.1-1.2L72.3,18.7z"/>
		<path class="st5" d="M102.6,12.7h-9.3v6.9h10.4v2.1H90.2V2.5h12.9v2.1h-9.8v6.1h9.3V12.7z"/>
		<path class="st5" d="M107.6,2.8c1.9-0.2,4.1-0.4,6.6-0.4c4.4,0,7.6,0.8,9.7,2.4c2.1,1.6,3.4,3.8,3.4,6.9c0,3.1-1.2,5.7-3.4,7.5
			c-2.2,1.8-5.9,2.8-10.6,2.8c-2.2,0-4-0.1-5.6-0.2V2.8z M110.7,19.8c0.8,0.1,1.9,0.1,3.1,0.1c6.6,0,10.2-3,10.2-8.2
			c0-4.5-3.2-7.4-9.7-7.4c-1.6,0-2.8,0.1-3.6,0.3V19.8z"/>
		<path class="st5" d="M131.3,2.5h12.9v2.1h-9.8V11h9V13h-9v8.7h-3.1V2.5z"/>
		<path class="st5" d="M151.6,2.5v19.2h-3.1V2.5H151.6z"/>
	</g>
</g>
</svg>
