<?xml version="1.0" encoding="utf-8"?>
<!-- Generator: Adobe Illustrator 26.3.1, SVG Export Plug-In . SVG Version: 6.00 Build 0)  -->
<svg version="1.1" id="Layer_1" xmlns="http://www.w3.org/2000/svg" xmlns:xlink="http://www.w3.org/1999/xlink" x="0px" y="0px"
	 viewBox="0 0 127 20" style="enable-background:new 0 0 127 20;" xml:space="preserve">
<style type="text/css">
	.st0{display:none;fill:url(#SVGID_1_);}
	.st1{display:none;fill:url(#SVGID_00000112590857868980769080000007105808384921435784_);}
	.st2{display:none;fill:url(#SVGID_00000034064500837890423880000001271867520330211467_);}
	.st3{display:none;fill:url(#SVGID_00000134933063466461527150000015943408893686803073_);}
	.st4{display:none;fill-rule:evenodd;clip-rule:evenodd;fill:#FFFFFF;}
	.st5{fill:#B98B55;}
	.st6{fill:url(#SVGID_00000107565643022526685840000012898317154173425561_);}
	.st7{fill:url(#SVGID_00000114050267011979010140000009829070593055802503_);}
	.st8{display:none;}
	.st9{display:inline;fill:#FFFFFF;}
	.st10{fill:#FFFFFF;}
</style>
<linearGradient id="SVGID_1_" gradientUnits="userSpaceOnUse" x1="28.6339" y1="14.9991" x2="3.6662" y2="14.9991" gradientTransform="matrix(1 0 0 -1 0 22)">
	<stop  offset="0" style="stop-color:#996939"/>
	<stop  offset="1" style="stop-color:#D0A875"/>
</linearGradient>
<path class="st0" d="M9.9,0.9L20,7v6.1L9.9,7V0.9z"/>
<linearGradient id="SVGID_00000085938991513993208720000017543646714238876820_" gradientUnits="userSpaceOnUse" x1="14.3173" y1="2.2464" x2="16.7165" y2="25.2446" gradientTransform="matrix(1 0 0 -1 0 22)">
	<stop  offset="0" style="stop-color:#272728"/>
	<stop  offset="1" style="stop-color:#4B4B4B"/>
</linearGradient>
<path style="display:none;fill:url(#SVGID_00000085938991513993208720000017543646714238876820_);" d="M9.9,19.8l10.1-6v-6l-10.1,6
	V19.8z"/>
<linearGradient id="SVGID_00000164504037075371687990000008015327263152349056_" gradientUnits="userSpaceOnUse" x1="9.7495" y1="18.8164" x2="-9.525955e-02" y2="11.0068" gradientTransform="matrix(1 0 0 -1 0 22)">
	<stop  offset="0" style="stop-color:#996939"/>
	<stop  offset="1" style="stop-color:#D0A875"/>
</linearGradient>
<path style="display:none;fill:url(#SVGID_00000164504037075371687990000008015327263152349056_);" d="M9.9,0.9L0,7v6.1L9.9,7V0.9z"
	/>
<linearGradient id="SVGID_00000023248162347893396420000003071691122167402414_" gradientUnits="userSpaceOnUse" x1="4.9375" y1="2.1817" x2="4.9375" y2="14.2019" gradientTransform="matrix(1 0 0 -1 0 22)">
	<stop  offset="0" style="stop-color:#363636"/>
	<stop  offset="1" style="stop-color:#333232"/>
</linearGradient>
<path style="display:none;fill:url(#SVGID_00000023248162347893396420000003071691122167402414_);" d="M9.9,19.8l-9.9-6v-6l9.9,6
	V19.8z"/>
<path class="st4" d="M29,15.4h1.4v-4.7h0V9.6h0V5.3H29V15.4z M31.9,10.8L31.9,10.8l0-1.2h0l2.6-4.3H36l-2.9,4.8v0l3.1,5.3h-1.6
	L31.9,10.8z M45.7,5.3l-2,7.4c-0.1,0.6-0.2,1.1-0.2,1.1h0c0,0-0.1-0.5-0.2-1.1l-1.8-7.4H40l2.6,10.1h1.6L46,8.9
	c0.2-0.6,0.3-1.4,0.3-1.4h0c0,0,0.1,0.8,0.3,1.4l1.8,6.6h1.6l2.7-10.1h-1.5l-1.9,7.4c-0.1,0.5-0.2,1.1-0.2,1.1h0
	c0,0-0.1-0.5-0.2-1.1l-2-7.4H45.7z M63.7,15.4h-6.1V5.3h5.9v1.2H59v3.2h3.6v1.2H59v3.3h4.7V15.4z M68.8,15.4h1.4V8.9
	c0-0.6-0.1-1.5-0.1-1.5h0c0,0,0.5,0.9,0.8,1.5l4.5,6.6h1.4V5.3h-1.4v6.6c0,0.6,0.1,1.5,0.1,1.5h0c0,0-0.5-0.9-0.8-1.5l-4.5-6.6h-1.4
	V15.4z M86.3,15.4h-1.4V6.5h-3.5V5.3h8.4v1.2h-3.5V15.4z M99.6,15.4h1.5L97.5,5.3H96l-3.6,10.1h1.5l1-2.9l0,0l0.4-1.2l1.1-3.2
	c0.2-0.5,0.4-1.4,0.4-1.4h0c0,0,0.2,0.9,0.4,1.4l1.1,3.2l0,0l0.4,1.2L99.6,15.4z"/>
<path class="st5" d="M105.2,1v6h2.5c1.1,0,1.9-0.6,1.9-1.7c0-0.6-0.4-1.2-1-1.4c0.6-0.2,0.9-0.7,0.9-1.3c0-0.9-0.8-1.5-1.8-1.5
	H105.2z M107.6,6.3h-1.7V4.2h1.7c0.7,0,1.2,0.4,1.2,1.1C108.8,6,108.3,6.3,107.6,6.3z M107.6,3.6h-1.7V1.7h1.7
	c0.6,0,1.1,0.3,1.1,0.9C108.7,3.3,108.2,3.6,107.6,3.6z M115,1h-3.9v6h3.9V6.3h-3.2v-2h2.8V3.6h-2.8V1.7h3.2V1z"/>
<linearGradient id="SVGID_00000089556400265579644350000010492638316660204940_" gradientUnits="userSpaceOnUse" x1="110.122" y1="21" x2="110.122" y2="13" gradientTransform="matrix(1 0 0 -1 0 22)">
	<stop  offset="0" style="stop-color:#FFD39B"/>
	<stop  offset="1" style="stop-color:#7C4C0E"/>
</linearGradient>
<path style="fill:url(#SVGID_00000089556400265579644350000010492638316660204940_);" d="M105.2,1L105.2,1L105.2,1L105.2,1L105.2,1z
	 M105.2,7L105.2,7L105.2,7L105.2,7L105.2,7z M108.6,3.9L108.6,3.9l-0.3,0L108.6,3.9L108.6,3.9z M105.9,6.3L105.9,6.3L105.9,6.3
	L105.9,6.3L105.9,6.3z M105.9,4.2V4.1h-0.1L105.9,4.2L105.9,4.2z M105.9,3.6L105.9,3.6l-0.1,0.1h0.1V3.6z M105.9,1.7V1.6h-0.1
	L105.9,1.7L105.9,1.7z M105.1,1v6h0.2V1H105.1z M105.2,7.1h2.5V6.9h-2.5V7.1z M107.6,7.1c0.6,0,1.1-0.2,1.4-0.5
	c0.4-0.3,0.6-0.8,0.6-1.3h-0.2c0,0.5-0.2,0.9-0.5,1.1c-0.3,0.3-0.8,0.4-1.3,0.4V7.1z M109.7,5.3c0-0.7-0.4-1.3-1.1-1.5L108.5,4
	c0.6,0.2,0.9,0.8,0.9,1.3H109.7z M108.6,4c0.6-0.2,0.9-0.8,0.9-1.4h-0.2c0,0.5-0.3,1-0.8,1.2L108.6,4z M109.5,2.6
	c0-0.5-0.2-0.9-0.5-1.2c-0.3-0.3-0.8-0.4-1.3-0.4v0.2c0.5,0,0.9,0.1,1.2,0.4c0.3,0.2,0.5,0.6,0.5,1H109.5z M107.6,0.9h-2.4v0.2h2.4
	V0.9z M107.6,6.2h-1.7v0.2h1.7V6.2z M106,6.3V4.2h-0.2v2.1H106z M105.9,4.3h1.7V4.1h-1.7V4.3z M107.6,4.3c0.3,0,0.6,0.1,0.8,0.3
	c0.2,0.2,0.3,0.4,0.3,0.7h0.2c0-0.4-0.1-0.7-0.4-0.9c-0.2-0.2-0.6-0.3-0.9-0.3V4.3z M108.7,5.3c0,0.3-0.1,0.6-0.3,0.7
	c-0.2,0.1-0.5,0.2-0.8,0.2v0.2c0.3,0,0.7-0.1,0.9-0.3c0.2-0.2,0.4-0.5,0.4-0.9H108.7z M107.6,3.5h-1.7v0.2h1.7V3.5z M106,3.6V1.7
	h-0.2v1.9H106z M105.9,1.8h1.7V1.6h-1.7V1.8z M107.6,1.8c0.3,0,0.5,0.1,0.7,0.2c0.2,0.1,0.3,0.3,0.3,0.6h0.2c0-0.3-0.1-0.6-0.4-0.8
	c-0.2-0.2-0.5-0.3-0.8-0.3V1.8z M108.6,2.6c0,0.3-0.1,0.5-0.3,0.6c-0.2,0.1-0.4,0.2-0.7,0.2v0.2c0.3,0,0.6-0.1,0.8-0.3
	c0.2-0.2,0.3-0.4,0.3-0.8H108.6z M115,1h0.1V0.9L115,1L115,1z M111.1,1L111.1,1L111.1,1L111.1,1L111.1,1z M111.1,7L111.1,7L111.1,7
	L111.1,7L111.1,7z M115,7L115,7l0.1,0.1V7H115z M115,6.3h0.1V6.2L115,6.3L115,6.3z M111.9,6.3L111.9,6.3L111.9,6.3L111.9,6.3
	L111.9,6.3z M111.9,4.3V4.2h-0.1L111.9,4.3L111.9,4.3z M114.7,4.3L114.7,4.3L114.7,4.3L114.7,4.3L114.7,4.3z M114.7,3.6L114.7,3.6
	L114.7,3.6L114.7,3.6L114.7,3.6z M111.9,3.6L111.9,3.6l-0.1,0.1h0.1V3.6z M111.9,1.7V1.6h-0.1L111.9,1.7L111.9,1.7z M115,1.7v0.1
	h0.1V1.7H115z M115,0.9h-3.9v0.2h3.9V0.9z M111,1v6h0.2V1H111z M111.1,7.1h3.9V6.9h-3.9V7.1z M115.1,7V6.3h-0.2V7H115.1z M115,6.2
	h-3.2v0.2h3.2V6.2z M112,6.3v-2h-0.2v2H112z M111.9,4.4h2.8V4.2h-2.8V4.4z M114.8,4.3V3.6h-0.2v0.7H114.8z M114.7,3.5h-2.8v0.2h2.8
	V3.5z M112,3.6V1.7h-0.2v1.8H112z M111.9,1.8h3.2V1.6h-3.2V1.8z M115.1,1.7V1h-0.2v0.7H115.1z"/>
<path class="st5" d="M116.5,1.7h1.9V7h0.8V1.7h1.9V1h-4.6V1.7z M125.2,5.3l0.6,1.7h0.8l-2.2-6h-0.9l-2.2,6h0.8l0.6-1.7H125.2z
	 M125,4.6h-2.1l1-2.9L125,4.6z"/>
<linearGradient id="SVGID_00000051343750619529070760000011287222096712022916_" gradientUnits="userSpaceOnUse" x1="121.5825" y1="21" x2="121.5825" y2="13" gradientTransform="matrix(1 0 0 -1 0 22)">
	<stop  offset="0" style="stop-color:#FFD39B"/>
	<stop  offset="1" style="stop-color:#7C4C0E"/>
</linearGradient>
<path style="fill:url(#SVGID_00000051343750619529070760000011287222096712022916_);" d="M116.5,1.7L116.5,1.7l-0.1,0.1h0.1V1.7z
	 M118.4,1.7L118.4,1.7l0.1-0.1h-0.1V1.7z M118.4,7L118.4,7L118.4,7L118.4,7L118.4,7z M119.2,7L119.2,7L119.2,7L119.2,7L119.2,7z
	 M119.2,1.7V1.6h-0.1v0.1H119.2z M121.1,1.7v0.1h0.1L121.1,1.7L121.1,1.7z M121.1,1L121.1,1L121.1,1L121.1,1L121.1,1z M116.5,1
	L116.5,1L116.5,1L116.5,1L116.5,1z M116.5,1.8h1.9V1.6h-1.9V1.8z M118.3,1.7V7h0.2V1.7H118.3z M118.4,7.1h0.8V6.9h-0.8V7.1z
	 M119.3,7V1.7h-0.2V7H119.3z M119.2,1.8h1.9V1.6h-1.9V1.8z M121.2,1.7V1H121v0.7H121.2z M121.1,0.9h-4.6v0.2h4.6V0.9z M116.4,1v0.7
	h0.2V1H116.4z M125.2,5.3L125.2,5.3L125.2,5.3L125.2,5.3L125.2,5.3z M125.8,7L125.8,7L125.8,7L125.8,7L125.8,7z M126.6,7L126.6,7
	l0.1,0.1L126.6,7L126.6,7z M124.4,1L124.4,1L124.4,1L124.4,1L124.4,1z M123.5,1L123.5,1L123.5,1L123.5,1L123.5,1z M121.3,7L121.3,7
	l-0.1,0.1L121.3,7L121.3,7z M122,7L122,7L122,7L122,7L122,7z M122.6,5.3L122.6,5.3L122.6,5.3L122.6,5.3L122.6,5.3z M125,4.6v0.1h0.1
	L125,4.6L125,4.6z M122.9,4.6L122.9,4.6l-0.1,0.1h0.1V4.6z M123.9,1.7L123.9,1.7l0-0.3L123.9,1.7L123.9,1.7z M125.1,5.3l0.6,1.7
	l0.2-0.1l-0.6-1.7L125.1,5.3z M125.8,7.1h0.8V6.9h-0.8V7.1z M126.7,7l-2.2-6l-0.2,0.1l2.2,6L126.7,7z M124.4,0.9h-0.9v0.2h0.9V0.9z
	 M123.4,1l-2.2,6l0.2,0.1l2.2-6L123.4,1z M121.3,7.1h0.8V6.9h-0.8V7.1z M122.1,7l0.6-1.7l-0.2-0.1L121.9,7L122.1,7z M122.6,5.4h2.6
	V5.2h-2.6V5.4z M125,4.5h-2.1v0.2h2.1V4.5z M123,4.6l1-2.9l-0.2-0.1l-1,2.9L123,4.6z M123.8,1.8l1,2.9l0.2-0.1l-1-2.9L123.8,1.8z"/>
<g class="st8">
	<path class="st9" d="M27.5,3c0.8-0.2,2-0.3,3.3-0.3c1.8,0,3,0.3,3.8,1c0.7,0.5,1.2,1.4,1.2,2.5c0,1.3-0.9,2.5-2.4,3.1v0
		c1.3,0.3,2.9,1.4,2.9,3.5c0,1.2-0.5,2.1-1.2,2.8c-1,0.9-2.5,1.3-4.8,1.3c-1.2,0-2.2-0.1-2.8-0.2V3z M29.3,8.7h1.6c1.9,0,3-1,3-2.3
		c0-1.6-1.2-2.3-3.1-2.3c-0.8,0-1.3,0.1-1.6,0.1V8.7z M29.3,15.4c0.4,0.1,0.9,0.1,1.5,0.1c1.9,0,3.6-0.7,3.6-2.7
		c0-1.9-1.6-2.7-3.6-2.7h-1.5V15.4z"/>
	<path class="st9" d="M40.9,12.4l-1.4,4.4h-1.9l4.7-13.9h2.2l4.7,13.9h-1.9l-1.5-4.4H40.9z M45.5,11l-1.4-4
		c-0.3-0.9-0.5-1.7-0.7-2.5h0c-0.2,0.8-0.4,1.7-0.7,2.5l-1.4,4H45.5z"/>
	<path class="st9" d="M51.1,14.6c0.8,0.5,2,0.9,3.2,0.9c1.8,0,2.9-1,2.9-2.4c0-1.3-0.7-2-2.6-2.8c-2.3-0.8-3.7-2-3.7-3.9
		c0-2.2,1.8-3.8,4.5-3.8c1.4,0,2.5,0.3,3.1,0.7L58,4.8c-0.5-0.2-1.4-0.7-2.6-0.7c-1.9,0-2.6,1.1-2.6,2.1c0,1.3,0.8,1.9,2.8,2.7
		c2.4,0.9,3.5,2,3.5,4.1c0,2.1-1.6,4-4.9,4c-1.3,0-2.8-0.4-3.5-0.9L51.1,14.6z"/>
	<path class="st9" d="M68.7,10.2h-5.4v5h6v1.5h-7.8V2.9H69v1.5h-5.7v4.4h5.4V10.2z"/>
	<path class="st9" d="M71.6,3c1.1-0.2,2.4-0.3,3.8-0.3c2.6,0,4.4,0.6,5.6,1.7c1.2,1.1,2,2.7,2,5c0,2.3-0.7,4.1-2,5.4
		c-1.3,1.3-3.4,2-6.1,2c-1.3,0-2.4-0.1-3.3-0.2V3z M73.4,15.3c0.5,0.1,1.1,0.1,1.8,0.1c3.8,0,5.9-2.1,5.9-5.9c0-3.3-1.8-5.4-5.6-5.4
		c-0.9,0-1.6,0.1-2.1,0.2V15.3z"/>
	<path class="st9" d="M85.4,2.9h7.5v1.5h-5.7V9h5.3v1.5h-5.3v6.3h-1.8V2.9z"/>
	<path class="st9" d="M97.2,2.9v13.9h-1.8V2.9H97.2z"/>
</g>
<g>
	<path class="st10" d="M27.7,4.5c0.8-0.1,2.1-0.2,3.4-0.2c1.9,0,3.1,0.3,4,0.8c0.8,0.4,1.2,1.1,1.2,2c0,1.1-0.9,2.1-2.5,2.5v0
		c1.4,0.3,3,1.2,3,2.9c0,1-0.5,1.7-1.2,2.3c-1,0.7-2.6,1.1-5,1.1c-1.3,0-2.3-0.1-2.9-0.1V4.5z M29.5,9.1h1.7c2,0,3.1-0.8,3.1-1.9
		c0-1.3-1.3-1.9-3.2-1.9c-0.9,0-1.4,0.1-1.7,0.1V9.1z M29.5,14.6c0.4,0.1,0.9,0.1,1.6,0.1c1.9,0,3.7-0.6,3.7-2.2
		c0-1.6-1.7-2.2-3.7-2.2h-1.5V14.6z"/>
	<path class="st10" d="M41.7,12.1l-1.5,3.6h-1.9l4.9-11.4h2.3l4.9,11.4h-2l-1.5-3.6H41.7z M46.4,11L45,7.7c-0.3-0.7-0.5-1.4-0.8-2.1
		h0C44,6.3,43.8,7,43.5,7.7L42.1,11H46.4z"/>
	<path class="st10" d="M52.2,13.9c0.8,0.4,2.1,0.7,3.4,0.7c1.9,0,3-0.8,3-1.9c0-1.1-0.8-1.7-2.7-2.3c-2.4-0.7-3.8-1.6-3.8-3.2
		c0-1.8,1.9-3.1,4.7-3.1c1.5,0,2.6,0.3,3.2,0.6l-0.5,1.2C59,5.7,58,5.3,56.7,5.3c-2,0-2.7,0.9-2.7,1.7c0,1.1,0.9,1.6,2.9,2.2
		c2.5,0.7,3.7,1.7,3.7,3.4c0,1.8-1.7,3.3-5.1,3.3c-1.4,0-2.9-0.3-3.7-0.7L52.2,13.9z"/>
	<path class="st10" d="M70.6,10.4H65v4.1h6.3v1.2h-8.2V4.3h7.8v1.2h-6v3.6h5.6V10.4z"/>
	<path class="st10" d="M73.7,4.5c1.1-0.1,2.5-0.2,4-0.2c2.7,0,4.6,0.5,5.9,1.4c1.3,0.9,2,2.3,2,4.1c0,1.9-0.7,3.4-2.1,4.4
		c-1.4,1.1-3.6,1.6-6.4,1.6c-1.3,0-2.5-0.1-3.4-0.1V4.5z M75.6,14.5c0.5,0.1,1.2,0.1,1.9,0.1c4,0,6.2-1.8,6.2-4.8
		c0-2.7-1.9-4.4-5.9-4.4c-1,0-1.7,0.1-2.2,0.2V14.5z"/>
	<path class="st10" d="M88,4.3h7.8v1.2h-5.9v3.8h5.5v1.2h-5.5v5.2H88V4.3z"/>
	<path class="st10" d="M100.4,4.3v11.4h-1.9V4.3H100.4z"/>
</g>
<image style="display:none;overflow:visible;" width="1060" height="1060" xlink:href="../../../../../../Library/Mobile Documents/com~apple~CloudDocs/Work/2022/BasedFi/Basedfi-logo-lg.png"  transform="matrix(1.781968e-02 0 0 1.781968e-02 0 0.9294)">
</image>
</svg>
