<?xml version="1.0" encoding="utf-8"?>
<!-- Generator: Adobe Illustrator 26.3.1, SVG Export Plug-In . SVG Version: 6.00 Build 0)  -->
<svg version="1.1" id="Layer_1" xmlns="http://www.w3.org/2000/svg" xmlns:xlink="http://www.w3.org/1999/xlink" x="0px" y="0px"
	 viewBox="0 0 100 16" style="enable-background:new 0 0 100 16;" xml:space="preserve">
<style type="text/css">
	.st0{fill:url(#SVGID_1_);}
	.st1{fill:url(#SVGID_00000109029477470938777950000013773328232857297570_);}
	.st2{fill:url(#SVGID_00000183952955727142706190000012191621996771094679_);}
	.st3{fill:url(#SVGID_00000137118751170927966530000000097293624658020514_);}
	.st4{display:none;fill-rule:evenodd;clip-rule:evenodd;fill:#FFFFFF;}
	
		.st5{fill:url(#SVGID_00000128464617958031203150000014231359782299995026_);stroke:url(#SVGID_00000065035250157830419290000004505131774820707504_);stroke-width:0.2;}
	.st6{fill:#FFFFFF;}
</style>
<linearGradient id="SVGID_1_" gradientUnits="userSpaceOnUse" x1="22.907" y1="12.1785" x2="2.9328" y2="12.1785" gradientTransform="matrix(1 0 0 -1 0 18)">
	<stop  offset="0" style="stop-color:#996939"/>
	<stop  offset="1" style="stop-color:#D0A875"/>
</linearGradient>
<path class="st0" d="M7.9,1L16,5.8v4.8L7.9,5.8V1z"/>
<linearGradient id="SVGID_00000172440227700797765630000003925705271275114904_" gradientUnits="userSpaceOnUse" x1="11.4609" y1="2.0506" x2="13.3525" y2="20.3167" gradientTransform="matrix(1 0 0 -1 0 18)">
	<stop  offset="0" style="stop-color:#272728"/>
	<stop  offset="1" style="stop-color:#4B4B4B"/>
</linearGradient>
<path style="fill:url(#SVGID_00000172440227700797765630000003925705271275114904_);" d="M7.9,16l8.1-4.8V6.5l-8.1,4.8V16z"/>
<linearGradient id="SVGID_00000060744921751689075810000006668811045446899075_" gradientUnits="userSpaceOnUse" x1="7.7776" y1="15.2374" x2="-5.321456e-02" y2="8.9794" gradientTransform="matrix(1 0 0 -1 0 18)">
	<stop  offset="0" style="stop-color:#996939"/>
	<stop  offset="1" style="stop-color:#D0A875"/>
</linearGradient>
<path style="fill:url(#SVGID_00000060744921751689075810000006668811045446899075_);" d="M7.9,1L0,5.8v4.8l7.9-4.8V1z"/>
<linearGradient id="SVGID_00000164497662762788947260000005938194923383377294_" gradientUnits="userSpaceOnUse" x1="3.95" y1="2" x2="3.95" y2="11.5454" gradientTransform="matrix(1 0 0 -1 0 18)">
	<stop  offset="0" style="stop-color:#363636"/>
	<stop  offset="1" style="stop-color:#333232"/>
</linearGradient>
<path style="fill:url(#SVGID_00000164497662762788947260000005938194923383377294_);" d="M7.9,16L0,11.2V6.5l7.9,4.8V16z"/>
<path class="st4" d="M20,12h1.3V7.9h0V6.8h0V3H20V12z M22.8,7.9L22.8,7.9l0-1.1h0L25.2,3h1.5l-2.8,4.3v0l3,4.7h-1.5L22.8,7.9z
	 M35.8,3l-1.9,6.6c-0.1,0.5-0.2,1-0.2,1h0c0,0-0.1-0.5-0.2-1L31.8,3h-1.4l2.4,9h1.6l1.7-5.8c0.2-0.6,0.3-1.3,0.3-1.3h0
	c0,0,0.1,0.7,0.3,1.3l1.7,5.8h1.6l2.5-9H41l-1.8,6.6c-0.1,0.5-0.2,1-0.2,1h0c0,0-0.1-0.5-0.2-1L37,3H35.8z M52.7,12h-5.8V3h5.5v1.1
	h-4.2v2.8h3.4V8h-3.4v2.9h4.4V12z M57.5,12h1.3V6.2c0-0.5-0.1-1.3-0.1-1.3h0c0,0,0.4,0.8,0.8,1.3l4.3,5.8h1.3V3h-1.3v5.9
	c0,0.5,0.1,1.3,0.1,1.3h0c0,0-0.4-0.8-0.8-1.3L58.9,3h-1.3V12z M74,12h-1.3V4.1h-3.3V3h7.9v1.1H74V12z M86.6,12H88l-3.4-9h-1.4
	l-3.4,9h1.4L82,9.5h0l0.4-1.1v0l1.1-2.9c0.2-0.5,0.4-1.3,0.4-1.3h0c0,0,0.2,0.8,0.4,1.3l1.1,2.9l0,0l0.4,1.1L86.6,12z"/>
<linearGradient id="SVGID_00000038392333983692338570000008751611280218989714_" gradientUnits="userSpaceOnUse" x1="95" y1="17" x2="95" y2="12" gradientTransform="matrix(1 0 0 -1 0 18)">
	<stop  offset="0" style="stop-color:#D1A866"/>
	<stop  offset="1" style="stop-color:#B99356"/>
</linearGradient>
<linearGradient id="SVGID_00000039129424298527739850000013445191682017383825_" gradientUnits="userSpaceOnUse" x1="95" y1="17" x2="95" y2="12" gradientTransform="matrix(1 0 0 -1 0 18)">
	<stop  offset="0" style="stop-color:#F2DE82"/>
	<stop  offset="1" style="stop-color:#D1A866"/>
</linearGradient>
<path style="fill:url(#SVGID_00000038392333983692338570000008751611280218989714_);stroke:url(#SVGID_00000039129424298527739850000013445191682017383825_);stroke-width:0.2;" d="
	M92,1V0.9h-0.1H91h-0.1V1v5v0.1H91h3.3h0.1V6V5.1V5h-0.1H92V1z M95.6,5.1L95.6,5.1L95.6,5.1l0,0.9v0.1h0.1H99h0.1V6V5.2V5.1H99h-2
	l1.3-1.2c0,0,0,0,0,0c0.2-0.2,0.4-0.4,0.5-0.6l0,0C98.9,3,99,2.8,99,2.5c0-0.2,0-0.5-0.1-0.7c-0.1-0.2-0.2-0.4-0.4-0.5
	C98.4,1.2,98.2,1.1,98,1c-0.2-0.1-0.4-0.1-0.7-0.1c-0.3,0-0.5,0-0.7,0.1c-0.2,0.1-0.4,0.2-0.6,0.3c-0.2,0.2-0.3,0.3-0.4,0.6
	c-0.1,0.2-0.1,0.5-0.1,0.7v0.1h0.1h0.9h0.1V2.7c0-0.2,0.1-0.4,0.2-0.6l0,0C96.9,2,97,1.9,97.3,1.9c0.2,0,0.3,0.1,0.4,0.2v0l0,0
	c0.1,0.1,0.2,0.2,0.2,0.4c0,0.1,0,0.2-0.1,0.4c-0.1,0.1-0.2,0.3-0.3,0.4l0,0L95.6,5.1z"/>
<g>
	<path class="st6" d="M22.3,2.2C23,2,24.2,1.9,25.3,1.9c1.7,0,2.8,0.3,3.6,0.9C29.6,3.2,30,3.9,30,4.9C30,6,29.1,7,27.8,7.5v0
		c1.2,0.3,2.7,1.2,2.7,3c0,1-0.4,1.8-1.1,2.4C28.4,13.6,27,14,24.9,14c-1.2,0-2-0.1-2.6-0.1V2.2z M23.9,7h1.5c1.8,0,2.8-0.8,2.8-2
		c0-1.4-1.2-1.9-2.8-1.9c-0.8,0-1.2,0.1-1.5,0.1V7z M23.9,12.7c0.3,0.1,0.8,0.1,1.4,0.1c1.7,0,3.3-0.6,3.3-2.3
		c0-1.6-1.5-2.3-3.3-2.3h-1.4V12.7z"/>
	<path class="st6" d="M34.8,10.2l-1.3,3.7h-1.7L36.1,2h2l4.4,11.9h-1.8l-1.4-3.7H34.8z M39,9l-1.3-3.4c-0.3-0.8-0.5-1.5-0.7-2.2h0
		c-0.2,0.7-0.4,1.4-0.7,2.2L35.1,9H39z"/>
	<path class="st6" d="M44.2,12c0.7,0.4,1.8,0.8,3,0.8c1.7,0,2.7-0.8,2.7-2c0-1.1-0.7-1.7-2.4-2.4c-2.1-0.7-3.4-1.7-3.4-3.4
		c0-1.9,1.7-3.2,4.2-3.2c1.3,0,2.3,0.3,2.9,0.6l-0.5,1.3c-0.4-0.2-1.3-0.6-2.5-0.6c-1.8,0-2.4,1-2.4,1.8c0,1.1,0.8,1.7,2.6,2.3
		c2.2,0.8,3.3,1.7,3.3,3.5c0,1.8-1.5,3.4-4.5,3.4c-1.3,0-2.6-0.3-3.3-0.8L44.2,12z"/>
	<path class="st6" d="M60.7,8.3h-5v4.3h5.6v1.3H54V2h7v1.3h-5.3V7h5V8.3z"/>
	<path class="st6" d="M63.4,2.2c1-0.1,2.2-0.2,3.6-0.2c2.4,0,4.1,0.5,5.3,1.5c1.2,1,1.8,2.3,1.8,4.3c0,1.9-0.7,3.5-1.9,4.6
		C71,13.4,69,14,66.5,14c-1.2,0-2.2-0.1-3-0.1V2.2z M65.1,12.7c0.4,0.1,1,0.1,1.7,0.1c3.6,0,5.5-1.8,5.5-5c0-2.8-1.7-4.6-5.3-4.6
		c-0.9,0-1.5,0.1-2,0.2V12.7z"/>
	<path class="st6" d="M76.2,2h7v1.3h-5.3v4h4.9v1.3h-4.9v5.4h-1.7V2z"/>
	<path class="st6" d="M87.3,2v11.9h-1.7V2H87.3z"/>
</g>
</svg>
