<?xml version="1.0" encoding="utf-8"?>
<!-- Generator: Adobe Illustrator 26.3.1, SVG Export Plug-In . SVG Version: 6.00 Build 0)  -->
<svg version="1.1" id="Layer_1" xmlns="http://www.w3.org/2000/svg" xmlns:xlink="http://www.w3.org/1999/xlink" x="0px" y="0px"
	 viewBox="0 0 191 15" style="enable-background:new 0 0 191 15;" xml:space="preserve">
<style type="text/css">
	.st0{display:none;fill:#FFFFFF;}
	.st1{fill:#FFFFFF;}
</style>
<path class="st0" d="M18.4,7.3c-0.8-0.8-1.8-1.2-2.9-1.2H4.1C3.9,6.1,3.8,6,3.6,5.9C3.5,5.7,3.4,5.5,3.4,5.3V4.4
	c0-0.2,0.1-0.4,0.2-0.5c0.2-0.1,0.3-0.2,0.5-0.2h14.6c0,0,0.1,0,0.1,0c0,0,0,0,0-0.1V0.8c0,0,0-0.1,0-0.1c0,0-0.1,0-0.1,0H4.1
	C3,0.7,2,1.1,1.2,1.9C0.4,2.7,0,3.7,0,4.8V5c0,1.1,0.4,2.1,1.2,2.9C2,8.6,3,9,4.1,9h11.3c0.2,0,0.4,0.1,0.5,0.2
	c0.2,0.1,0.2,0.3,0.2,0.5v0.9c0,0.2-0.1,0.4-0.2,0.5c-0.2,0.1-0.3,0.2-0.5,0.2H0.9c0,0-0.1,0-0.1,0c0,0,0,0.1,0,0.1v2.7
	c0,0,0,0.1,0,0.1c0,0,0,0,0.1,0h14.6c1.1,0,2.1-0.4,2.9-1.2c0.8-0.8,1.2-1.8,1.2-2.9v-0.2C19.6,9,19.2,8.1,18.4,7.3z"/>
<path class="st0" d="M42.9,0.7h-3.2c0,0-0.1,0-0.1,0c0,0,0,0,0,0.1v3.5c0,0.3-0.2,0.5-0.5,0.7l-6.3,2.6L26.6,5
	c-0.3-0.2-0.5-0.4-0.5-0.7V0.8c0,0,0-0.1,0-0.1c0,0,0,0-0.1,0h-3.2c0,0-0.1,0-0.1,0c0,0,0,0,0,0.1v4c0,0.6,0.2,1.1,0.5,1.6
	c0.3,0.5,0.8,0.9,1.3,1.1l6.6,2.8v4c0,0,0,0.1,0,0.1c0,0,0.1,0,0.1,0h3.2c0,0,0.1,0,0.1,0c0,0,0-0.1,0-0.1v-4l6.6-2.8
	c0.6-0.2,1-0.6,1.3-1.1C42.9,6,43,5.4,43,4.8v-4C43,0.8,43,0.8,42.9,0.7C43,0.7,43,0.7,42.9,0.7z"/>
<path class="st0" d="M66.4,0.7h-3.2c0,0-0.1,0-0.1,0c0,0,0,0,0,0.1v10.6h-1.3c-0.2,0-0.5-0.1-0.6-0.3l-6.1-9
	c-0.7-0.9-1.6-1.4-2.7-1.4h-5.3c0,0-0.1,0-0.1,0c0,0,0,0,0,0.1v13.5c0,0,0,0.1,0,0.1c0,0,0.1,0,0.1,0h3.2c0,0,0.1,0,0.1,0
	c0,0,0,0,0-0.1V3.7h1.3c0.2,0,0.5,0.1,0.6,0.3l6.1,9c0.7,0.9,1.6,1.4,2.7,1.4h5.3c0,0,0.1,0,0.1,0c0,0,0,0,0-0.1V0.8
	C66.5,0.8,66.5,0.8,66.4,0.7C66.5,0.7,66.5,0.7,66.4,0.7z"/>
<path class="st0" d="M89.3,0.7H69.9c0,0-0.1,0-0.1,0c0,0,0,0,0,0.1v2.7c0,0,0,0.1,0,0.1c0,0,0,0,0.1,0h8v10.6c0,0,0,0.1,0,0.1
	c0,0,0,0,0.1,0h3.2c0,0,0.1,0,0.1,0c0,0,0,0,0-0.1V3.7h8c0,0,0.1,0,0.1,0c0,0,0,0,0-0.1V0.8C89.4,0.8,89.4,0.8,89.3,0.7
	C89.3,0.7,89.3,0.7,89.3,0.7z"/>
<path class="st0" d="M112.8,0.7h-3.2c0,0-0.1,0-0.1,0c0,0,0,0,0,0.1v5.3H96.7V0.8c0,0,0-0.1,0-0.1c0,0-0.1,0-0.1,0h-3.2
	c0,0-0.1,0-0.1,0c0,0,0,0,0,0.1v13.5c0,0,0,0.1,0,0.1c0,0,0,0,0.1,0h3.2c0,0,0.1,0,0.1,0c0,0,0,0,0-0.1V9h12.8v5.3c0,0,0,0.1,0,0.1
	c0,0,0,0,0.1,0h3.2c0,0,0.1,0,0.1,0c0,0,0,0,0-0.1V0.8C112.9,0.8,112.9,0.8,112.8,0.7C112.8,0.7,112.8,0.7,112.8,0.7z"/>
<path class="st0" d="M136.2,0.7h-15.3c-1.1,0-2.1,0.4-2.9,1.2c-0.8,0.8-1.2,1.8-1.2,2.9v5.5c0,1.1,0.4,2.1,1.2,2.9
	c0.8,0.8,1.8,1.2,2.9,1.2h15.3c0,0,0.1,0,0.1,0c0,0,0,0,0-0.1v-2.7c0,0,0-0.1,0-0.1c0,0,0,0-0.1,0h-15.3c-0.2,0-0.4-0.1-0.5-0.2
	c-0.1-0.1-0.2-0.3-0.2-0.5V9h16.1c0,0,0.1,0,0.1,0c0,0,0,0,0-0.1V6.2c0,0,0-0.1,0-0.1c0,0,0,0-0.1,0h-16.1V4.4
	c0-0.2,0.1-0.4,0.2-0.5c0.1-0.1,0.3-0.2,0.5-0.2h15.3c0,0,0.1,0,0.1,0c0,0,0,0,0-0.1V0.8C136.3,0.8,136.3,0.8,136.2,0.7
	C136.2,0.7,136.2,0.7,136.2,0.7z"/>
<path class="st0" d="M159.5,0.7h-19.4c0,0-0.1,0-0.1,0c0,0,0,0,0,0.1v2.7c0,0,0,0.1,0,0.1c0,0,0,0,0.1,0h8v10.6c0,0,0,0.1,0,0.1
	c0,0,0,0,0.1,0h3.2c0,0,0.1,0,0.1,0c0,0,0,0,0-0.1V3.7h8c0,0,0.1,0,0.1,0c0,0,0,0,0-0.1V0.8C159.7,0.8,159.6,0.8,159.5,0.7
	C159.6,0.7,159.6,0.7,159.5,0.7z"/>
<path class="st0" d="M166.9,0.7C166.9,0.7,166.9,0.7,166.9,0.7l-3.2,0c0,0-0.1,0-0.1,0c0,0,0,0,0,0.1v13.5c0,0,0,0.1,0,0.1
	c0,0,0,0,0.1,0h3.2c0,0,0.1,0,0.1,0c0,0,0,0,0-0.1L166.9,0.7C166.9,0.8,166.9,0.8,166.9,0.7z"/>
<path class="st0" d="M175.6,4c-0.1-0.2-0.3-0.2-0.5-0.2H171c0,0-0.1,0-0.1,0c0,0,0,0,0-0.1V1c0,0,0-0.1,0-0.1c0,0,0.1,0,0.1,0h4.3
	c1.1,0,2,0.4,2.8,1.3l1.1,1.3l-2.1,2.5L175.6,4z M183.2,2.2c0.8-0.9,1.7-1.3,2.8-1.3h4.3c0,0,0.1,0,0.1,0c0,0,0,0,0,0.1v2.7
	c0,0,0,0.1,0,0.1c0,0,0,0-0.1,0h-4.1c-0.2,0-0.4,0.1-0.5,0.2l-3,3.6l3,3.7c0.1,0.1,0.3,0.2,0.5,0.2h4.1c0,0,0.1,0,0.1,0
	c0,0,0,0.1,0,0.1v2.7c0,0,0,0.1,0,0.1c0,0,0,0-0.1,0h-4.3c-1.1,0-2-0.4-2.8-1.3l-2.5-3l-2.5,3c-0.8,0.9-1.7,1.3-2.8,1.3H171
	c0,0-0.1,0-0.1,0c0,0,0-0.1,0-0.1v-2.7c0,0,0-0.1,0-0.1c0,0,0,0,0.1,0h4.1c0.2,0,0.4-0.1,0.5-0.2l3-3.6L183.2,2.2z"/>
<g>
	<path class="st1" d="M8.6,1.1c1.9-0.2,4.8-0.3,7.9-0.3c4.3,0,7.1,0.3,9.1,0.9c1.7,0.5,2.8,1.3,2.8,2.3c0,1.3-2.1,2.4-5.6,2.9v0
		c3.2,0.3,6.9,1.3,6.9,3.3c0,1.1-1.1,2-2.8,2.6c-2.3,0.8-6.1,1.2-11.5,1.2c-3,0-5.2-0.1-6.7-0.2V1.1z M12.9,6.4h3.9
		c4.5,0,7.2-0.9,7.2-2.2c0-1.5-3-2.1-7.3-2.1c-2,0-3.1,0.1-3.8,0.1V6.4z M12.9,12.7c0.8,0.1,2.1,0.1,3.6,0.1c4.4,0,8.6-0.6,8.6-2.5
		c0-1.8-3.9-2.5-8.6-2.5h-3.6V12.7z"/>
	<path class="st1" d="M40.7,9.8l-3.5,4.1h-4.4l11.3-13h5.2l11.4,13h-4.6l-3.6-4.1H40.7z M51.7,8.5l-3.3-3.7
		c-0.7-0.8-1.2-1.6-1.7-2.4h-0.1c-0.5,0.8-1,1.6-1.7,2.4l-3.3,3.8H51.7z"/>
	<path class="st1" d="M65,11.9c1.9,0.5,4.7,0.8,7.7,0.8c4.4,0,7-0.9,7-2.2c0-1.2-1.8-1.9-6.3-2.6c-5.4-0.8-8.8-1.9-8.8-3.7
		c0-2,4.3-3.5,10.8-3.5c3.4,0,5.9,0.3,7.4,0.6l-1.2,1.4c-1.1-0.2-3.3-0.6-6.3-0.6c-4.5,0-6.3,1.1-6.3,1.9c0,1.2,2,1.8,6.6,2.5
		c5.6,0.8,8.5,1.9,8.5,3.8c0,2-3.8,3.7-11.7,3.7c-3.2,0-6.7-0.4-8.5-0.8L65,11.9z"/>
	<path class="st1" d="M107.2,7.8h-13v4.7h14.4v1.4H90v-13h18v1.4H94.3v4.1h13V7.8z"/>
	<path class="st1" d="M114.3,1.1c2.6-0.2,5.7-0.3,9.1-0.3c6.2,0,10.6,0.6,13.5,1.6c3,1.1,4.7,2.6,4.7,4.7c0,2.1-1.7,3.9-4.8,5.1
		c-3.1,1.2-8.3,1.9-14.7,1.9c-3.1,0-5.6-0.1-7.8-0.2V1.1z M118.6,12.6c1.1,0.1,2.7,0.1,4.4,0.1c9.2,0,14.2-2,14.2-5.5
		c0-3.1-4.4-5-13.5-5c-2.2,0-3.9,0.1-5,0.2V12.6z"/>
	<path class="st1" d="M147.2,0.9h17.9v1.4h-13.6v4.3h12.6V8h-12.6v5.9h-4.3V0.9z"/>
	<path class="st1" d="M175.6,0.9v13h-4.3v-13H175.6z"/>
</g>
</svg>
